<?xml version="1.0" standalone="no"?>
<!DOCTYPE svg PUBLIC "-//W3C//DTD SVG 20010904//EN"
 "http://www.w3.org/TR/2001/REC-SVG-20010904/DTD/svg10.dtd">
<svg version="1.0" xmlns="http://www.w3.org/2000/svg"
 width="700.000000pt" height="700.000000pt" viewBox="0 0 700.000000 700.000000"
 preserveAspectRatio="xMidYMid meet">
<metadata>
Created by potrace 1.14, written by Peter Selinger 2001-2017
</metadata>
<g transform="translate(0.000000,700.000000) scale(0.100000,-0.100000)"
fill="#000000" stroke="none">
<path d="M3280 6994 c-19 -2 -84 -9 -145 -14 -639 -62 -1264 -315 -1795 -726
-149 -115 -481 -446 -595 -594 -410 -532 -653 -1132 -727 -1795 -17 -155 -17
-575 0 -730 75 -673 332 -1300 748 -1820 114 -143 339 -372 484 -494 537 -451
1163 -717 1885 -803 142 -17 586 -17 730 0 682 79 1268 318 1802 734 138 107
389 351 512 498 451 538 717 1162 803 1885 16 139 16 595 0 730 -77 629 -275
1158 -620 1649 -234 333 -577 668 -917 896 -460 308 -968 495 -1535 566 -117
15 -552 27 -630 18z m929 -2131 c58 -214 108 -396 113 -405 8 -16 31 -18 258
-18 138 0 250 -2 250 -5 0 -3 -76 -138 -170 -301 -93 -162 -170 -300 -170
-306 0 -10 478 -1802 487 -1826 4 -10 -48 -12 -252 -10 l-258 3 -158 590 c-88
324 -162 600 -167 614 -7 20 -58 -62 -362 -590 l-355 -614 -284 -3 c-262 -2
-283 -1 -277 14 4 10 248 436 544 948 295 511 538 937 540 947 3 15 -148 599
-166 642 -5 13 -195 -307 -740 -1251 -403 -698 -738 -1277 -745 -1286 -11 -15
-41 -16 -293 -14 l-282 3 737 1275 c405 702 828 1434 939 1628 l204 352 252 0
251 0 104 -387z"/>
</g>
</svg>
